<?xml version="1.0" encoding="UTF-8"?>
<svg width="22px" height="22px" viewBox="0 0 22 22" version="1.1" xmlns="http://www.w3.org/2000/svg" xmlns:xlink="http://www.w3.org/1999/xlink">
    <!-- Generator: Sketch 41.2 (35397) - http://www.bohemiancoding.com/sketch -->
    <title>Page 1</title>
    <desc>Created with Sketch.</desc>
    <defs></defs>
    <g id="Page-1" stroke="none" stroke-width="1" fill="none" fill-rule="evenodd">
        <path d="M0.528522132,21.4714779 C1.24853781,22.1914935 1.95289004,22.1758409 2.64160045,21.4245206 L10.9999991,13.1600365 L19.3583978,21.4245206 C20.0471088,22.1758409 20.7514592,22.1914935 21.4714791,21.4714779 C22.191493,20.7514622 22.1758416,20.04711 21.4245188,19.3583995 L13.1600347,11.0000009 L21.4245188,2.64160219 C22.1758416,1.95289118 22.191493,1.24854075 21.4714791,0.52852087 C20.7514592,-0.191493005 20.0471088,-0.175841575 19.3583978,0.575481171 L10.9999991,8.83996526 L2.64160045,0.575481171 C1.95289004,-0.175841575 1.24853781,-0.191493005 0.528522132,0.52852087 C-0.191493545,1.24854075 -0.175840913,1.95289118 0.575479428,2.64160219 L8.83996352,11.0000009 L0.575479428,19.3583995 C-0.175840913,20.04711 -0.191493545,20.7514622 0.528522132,21.4714779 Z" fill="#FFFFFF"></path>
    </g>
</svg>