<?xml version="1.0" encoding="UTF-8"?>
<svg width="30px" height="21px" viewBox="0 0 30 21" version="1.1" xmlns="http://www.w3.org/2000/svg" xmlns:xlink="http://www.w3.org/1999/xlink">
    <!-- Generator: Sketch 41.2 (35397) - http://www.bohemiancoding.com/sketch -->
    <title>Page 1</title>
    <desc>Created with Sketch.</desc>
    <defs></defs>
    <g id="Page-1" stroke="none" stroke-width="1" fill="none" fill-rule="evenodd">
        <path d="M1.5,12 L28.5,12 C28.937502,12 29.296872,11.859378 29.578128,11.578128 C29.859378,11.296872 30,10.937502 30,10.5 C30,10.062498 29.859378,9.703128 29.578128,9.421872 C29.296872,9.140622 28.937502,9 28.5,9 L1.5,9 C1.062498,9 0.7031262,9.140622 0.421875,9.421872 C0.14062362,9.703128 0,10.062498 0,10.5 C0,10.937502 0.14062362,11.296872 0.421875,11.578128 C0.7031262,11.859378 1.062498,12 1.5,12 Z M1.5,3 L28.5,3 C28.937502,3 29.296872,2.859378 29.578128,2.578128 C29.859378,2.296872 30,1.937502 30,1.5 C30,1.062498 29.859378,0.703128 29.578128,0.421872 C29.296872,0.140622 28.937502,0 28.5,0 L1.5,0 C1.062498,0 0.7031262,0.140622 0.421875,0.421872 C0.14062362,0.703128 0,1.062498 0,1.5 C0,1.937502 0.14062362,2.296872 0.421875,2.578128 C0.7031262,2.859378 1.062498,3 1.5,3 Z M1.5,21 L28.5,21 C28.937502,21 29.296872,20.8593764 29.578128,20.578125 C29.859378,20.2968738 30,19.937502 30,19.5 C30,19.062498 29.859378,18.7031262 29.578128,18.421875 C29.296872,18.1406238 28.937502,18 28.5,18 L1.5,18 C1.062498,18 0.7031262,18.1406238 0.421875,18.421875 C0.14062362,18.7031262 0,19.062498 0,19.5 C0,19.937502 0.14062362,20.2968738 0.421875,20.578125 C0.7031262,20.8593764 1.062498,21 1.5,21 Z" fill="#FFFFFF"></path>
    </g>
</svg>